# xmcd
#
# Track frame offsets:
#	150
#	11231
#	24431
#	37490
#	54764
#	69907
#	82845
#	94183
#	105659
#	116285
#	127897
#	141636
#	152921
#	163972
#	178290
#	188792
#	198862
#	210649
#	221443
#	230571
#	241878
#	256232
#	267224
#	281176
#	291890
#
# Disc length: 4072 seconds
#
# Revision: 0
# Processed by: cddbd v1.4PL0 Copyright (c) Steve Scherf et al.
# Submitted via: EasyCDDAExtractor 4.5.2.1
#
DISCID=700fe619
DTITLE=Various  - Forever DooWop  Vol 1
DYEAR=1900
DGENRE=Blues
TTITLE0=Four Graduates - A Lovely Way To Spend An Evening
TTITLE1=Turbans - I'm Nobody's
TTITLE2=BLue Jays (Leon Peels and the) - Once Upon A Love
TTITLE3=Guevera and group - The Star Spangled Banner
TTITLE4=Tangiers - Remember Me
TTITLE5=Vel-Aires (Donald Woods and the) - Heaven In My Arms
TTITLE6=Rocketones - Dee I
TTITLE7=Lapels - Sneakin' Around
TTITLE8=Playboys - One Question
TTITLE9=Spaniels - You Painted Pictures
TTITLE10=Heartbeats - Everybody's Somebody's Fool
TTITLE11=Jesters - Please Let Me Love You
TTITLE12=Fidelitys - Walk With The Wind
TTITLE13=Five Blue Notes - The Beat Of Our Hearts
TTITLE14=Hi-Lites - I'm Falling In Love
TTITLE15=Blue Notes - If It's Our Destiny
TTITLE16=Etta James and Harvey Fuqua - My Heart Cries
TTITLE17=Heartbeats - One Day Next Year
TTITLE18=Corvairs - Sing A Song Of Sixpence
TTITLE19=Pearls - Tree In The Meadow
TTITLE20=Harptones - I'll Never Tell
TTITLE21=Dubs - This To Me Is Love
TTITLE22=Meadowlarks (Don Julian and the) - Untrue
TTITLE23=Five Keys - Who Do You Know In Heaven
TTITLE24=Esquires - Only The Angels Know
EXTD=
EXTT0=
EXTT1=
EXTT2=
EXTT3=
EXTT4=
EXTT5=
EXTT6=
EXTT7=
EXTT8=
EXTT9=
EXTT10=
EXTT11=
EXTT12=
EXTT13=
EXTT14=
EXTT15=
EXTT16=
EXTT17=
EXTT18=
EXTT19=
EXTT20=
EXTT21=
EXTT22=
EXTT23=
EXTT24=
PLAYORDER=
